<svg xmlns="http://www.w3.org/2000/svg" viewBox="0 0 64 64" fill="none">
  <rect width="64" height="64" rx="18" fill="#020402"/>
  <path d="M21.6 44.5c-5.7 0-9.8-2.7-9.8-6.4 0-2.1 1.3-3.6 3.2-3.6 2.4 0 3.2 1.9 4.1 3.8.8 1.8 1.8 3.5 4.6 3.5 2.7 0 4.6-1.4 4.6-3.6 0-2.4-2.2-3.5-5.7-4.9l-2.7-1.1c-4.3-1.7-7.2-4.2-7.2-8.6 0-5.2 4.3-8.3 10.3-8.3 3.1 0 5.9.7 8.3 1.9v7.1h-2.8c-.8-4.1-2.8-6.2-6.1-6.2-2.6 0-4.4 1.4-4.4 3.5 0 2.2 1.8 3.3 5.2 4.7l2.9 1.1c4.7 1.9 7.4 4.5 7.4 8.8 0 5.2-4.8 8.3-11.9 8.3Z" fill="#263d27"/>
  <circle cx="43.5" cy="23" r="4" fill="#263d27"/>
</svg>
